<?xml version="1.0" encoding="utf-8"?>
<!-- Generator: Adobe Illustrator 12.0.0, SVG Export Plug-In . SVG Version: 6.00 Build 51448)  -->
<!DOCTYPE svg PUBLIC "-//W3C//DTD SVG 1.1//EN" "http://www.w3.org/Graphics/SVG/1.1/DTD/svg11.dtd" [
	<!ENTITY ns_svg "http://www.w3.org/2000/svg">
	<!ENTITY ns_xlink "http://www.w3.org/1999/xlink">
]>
<svg  version="1.1" id="Ebene_1" xmlns="&ns_svg;" xmlns:xlink="&ns_xlink;" width="1437.651" height="565.882"
	 viewBox="0 0 1437.651 565.882" overflow="visible" enable-background="new 0 0 1437.651 565.882" xml:space="preserve">
<g>
	<path fill="#363436" d="M1287.543,169.583h-6.483v127.741c-5.78-2.312-13.869-6.283-24.854-10.404
		c-12.168-4.565-25.821-6.937-45.085-6.937c-14.261,0-29.389,2.701-45.374,8.093c-15.995,5.4-30.833,13.972-44.507,25.722
		c-13.683,11.758-24.955,26.787-33.814,45.085c-8.868,18.306-13.295,40.172-13.295,65.603c0,21.197,2.981,40.371,8.961,57.513
		c5.97,17.15,14.351,31.7,25.144,43.641c10.783,11.947,23.499,21.195,38.147,27.743c14.641,6.549,30.437,9.826,47.398,9.826
		c13.094,0,24.565-1.733,34.391-5.201c9.826-3.469,18.397-7.515,25.722-12.139c7.315-4.624,13.194-9.339,17.63-14.161
		c4.426-4.814,7.604-8.382,9.537-10.692l1.733,34.102h4.75h47.115V525.95V169.583v-0.118h-47.115V169.583z M1281.06,441.827
		c0,7.713-1.445,16.094-4.335,25.145c-2.892,9.058-7.324,17.339-13.294,24.854c-5.979,7.515-13.782,13.781-23.41,18.785
		c-9.637,5.013-21.196,7.514-34.682,7.514c-13.492,0-25.143-2.401-34.969-7.225c-9.827-4.813-17.918-11.461-24.277-19.941
		c-6.357-8.472-11.08-18.397-14.16-29.768c-3.09-11.361-4.624-23.409-4.624-36.126c0-15.407,2.213-29.279,6.646-41.616
		c4.425-12.328,10.595-22.732,18.497-31.213c7.894-8.471,17.141-15.028,27.744-19.652c10.593-4.624,22.254-6.937,34.969-6.937
		c19.266,0,32.248,1.34,44.508,7.804c10.289,5.425,17.53,9.348,21.387,12.427V441.827z"/>
	<path fill="#363436" d="M78.772,283.25h0.246v-9.248c0-23.5,2.749-43.108,13.583-54.709c9.018-9.658,21.098-14.452,36.126-14.452
		c16.184,0,31.402,5.979,45.663,17.919l26.01-33.524c-11.56-10.784-24.186-18.397-37.86-22.832
		c-13.682-4.426-27.654-6.648-41.905-6.648c-12.337,0-24.087,2.024-35.259,6.07c-11.181,4.046-21.097,10.314-29.768,18.785
		c-8.67,8.481-15.606,19.364-20.808,32.658s-7.803,34.001-7.803,52.108v13.873H0v44.128h26.997v1.314v226.425h52.021V327.378h-0.246
		V283.25"/>
	<path fill="#363436" d="M328.51,307.394c-19.851-16.763-47.108-24.144-81.788-24.144c-6.368,0-37.721,0.103-72.051,0H65.328v44.128
		h172.664c20.884,0.514,38.229,1.999,50.42,9.606c11.41,7.12,20.157,20.652,20.157,40.684v9.826
		c-1.933-0.38-5.202-0.767-9.826-1.156c-4.624-0.379-10.025-0.768-16.184-1.156c-6.169-0.379-12.717-0.768-19.653-1.156
		c-6.936-0.379-13.493-0.578-19.652-0.578c-38.149,0-67.338,8.67-87.569,26.01c-20.23,17.341-30.345,40.461-30.345,69.361
		c0,15.417,2.79,28.422,8.381,39.016c5.581,10.604,12.906,19.274,21.964,26.011c9.05,6.747,19.074,11.561,30.057,14.45
		c10.982,2.892,22.055,4.335,33.235,4.335c17.341,0,34.194-3.277,50.576-9.826c16.374-6.547,29.569-16.563,39.594-30.057
		l1.156,32.369h51.553v-180.34C361.856,343.953,348.353,324.156,328.51,307.394 M308.569,458.588c0,8.093-2.122,15.995-6.358,23.699
		c-4.245,7.713-9.826,14.45-16.762,20.231c-6.936,5.778-14.938,10.402-23.988,13.871c-9.058,3.469-18.596,5.202-28.611,5.202
		c-17.729,0-31.601-3.758-41.617-11.271c-10.025-7.515-15.028-18.586-15.028-33.235c0-5.78,0.957-11.85,2.889-18.208
		c1.924-6.356,5.492-12.138,10.694-17.34s12.328-9.537,21.386-13.006c9.05-3.467,20.899-5.202,35.548-5.202
		c6.159,0,12.517,0.199,19.075,0.578c6.547,0.389,12.716,0.777,18.496,1.157c5.78,0.388,10.882,0.866,15.317,1.444
		c4.425,0.578,7.415,1.065,8.959,1.444V458.588z"/>
	<rect x="413.429" y="286.341" fill="#363436" width="55.379" height="268.775"/>
	<polygon fill="#363436" points="742.453,327.958 742.453,286.342 521.323,286.342 521.323,334.271 678.873,334.271 
		520.323,511.078 520.323,555.117 746.188,555.117 746.188,507.05 585.812,507.05 	"/>
	<path fill="#363436" d="M906.337,279.918c-78.967,0-142.982,64.015-142.982,142.982s64.016,142.982,142.982,142.982
		s142.982-64.016,142.982-142.982S985.304,279.918,906.337,279.918 M906.337,515.616c-51.206,0-92.716-41.51-92.716-92.716
		s41.51-92.716,92.716-92.716s92.716,41.51,92.716,92.716S957.543,515.616,906.337,515.616"/>
	<path fill="#363436" d="M473.435,216.621c0,17.848-14.469,32.317-32.317,32.317s-32.317-14.469-32.317-32.317
		c0-17.848,14.469-32.317,32.317-32.317S473.435,198.773,473.435,216.621"/>
	<path fill="#363436" d="M1437.651,524.621c0,17.849-14.469,32.317-32.316,32.317c-17.849,0-32.317-14.469-32.317-32.317
		c0-17.848,14.469-32.316,32.317-32.316C1423.183,492.304,1437.651,506.773,1437.651,524.621"/>
</g>
<g>
	<path fill="#808080" d="M44.966,99.715c-5.93,0-11.162-1.504-15.697-4.514c-4.537-3.01-8.197-6.805-10.982-11.387v43.254H9.122
		V28.162h8.221v13.609c2.875-4.4,6.602-7.971,11.184-10.711s9.566-4.111,14.957-4.111c4.852,0,9.297,1.012,13.34,3.033
		s7.547,4.717,10.512,8.084c2.965,3.369,5.277,7.254,6.939,11.656c1.66,4.402,2.492,8.938,2.492,13.609
		c0,4.941-0.764,9.613-2.291,14.016s-3.705,8.264-6.535,11.588s-6.199,5.951-10.105,7.883
		C53.927,98.748,49.638,99.715,44.966,99.715z M42.405,91.629c3.773,0,7.209-0.807,10.309-2.424s5.75-3.75,7.951-6.4
		c2.199-2.65,3.885-5.66,5.053-9.029c1.168-3.367,1.752-6.85,1.752-10.443c0-3.773-0.674-7.365-2.021-10.779
		s-3.189-6.424-5.525-9.029s-5.098-4.67-8.287-6.197s-6.625-2.291-10.309-2.291c-2.336,0-4.783,0.473-7.344,1.416
		s-4.941,2.201-7.141,3.771c-2.201,1.572-4.088,3.414-5.66,5.525s-2.537,4.334-2.896,6.67v21.559
		c1.078,2.516,2.447,4.852,4.109,7.008c1.66,2.156,3.547,4.021,5.658,5.594s4.381,2.807,6.807,3.705S39.8,91.629,42.405,91.629z"/>
	<path fill="#808080" d="M122.193,99.715c-5.121,0-9.793-0.967-14.016-2.896c-4.223-1.932-7.883-4.559-10.982-7.883
		s-5.502-7.186-7.209-11.588s-2.559-9.029-2.559-13.881c0-4.939,0.875-9.611,2.627-14.014c1.75-4.402,4.176-8.264,7.275-11.588
		s6.76-5.975,10.982-7.951s8.85-2.965,13.881-2.965c5.029,0,9.678,0.988,13.945,2.965c4.266,1.977,7.949,4.627,11.049,7.951
		s5.525,7.186,7.277,11.588s2.629,9.074,2.629,14.014c0,4.852-0.854,9.479-2.561,13.881s-4.111,8.264-7.211,11.588
		s-6.783,5.951-11.049,7.883C132.006,98.748,127.313,99.715,122.193,99.715z M96.725,63.602c0,3.953,0.674,7.615,2.021,10.982
		c1.348,3.369,3.166,6.334,5.457,8.895c2.289,2.561,4.984,4.559,8.084,5.996s6.402,2.154,9.906,2.154
		c3.502,0,6.803-0.74,9.902-2.223c3.1-1.48,5.816-3.502,8.152-6.063s4.178-5.547,5.525-8.961s2.021-7.098,2.021-11.051
		c0-3.863-0.674-7.523-2.021-10.982c-1.348-3.457-3.189-6.467-5.525-9.027s-5.053-4.582-8.152-6.064
		c-3.1-1.48-6.4-2.223-9.902-2.223c-3.504,0-6.783,0.742-9.838,2.223c-3.055,1.482-5.75,3.525-8.086,6.131s-4.176,5.639-5.523,9.096
		C97.398,55.943,96.725,59.648,96.725,63.602z"/>
	<path fill="#808080" d="M258.303,28.162h9.029l-30.186,70.205h-7.545L214.51,62.523l-14.957,35.844h-7.547l-30.184-70.205h8.893
		l25.604,60.773l13.34-32.072l-11.992-28.566h7.68l9.164,22.908l9.162-22.908h7.816l-11.994,28.566l13.342,32.072L258.303,28.162z"
		/>
	<path fill="#808080" d="M307.238,99.715c-5.121,0-9.816-0.967-14.082-2.896c-4.268-1.932-7.973-4.582-11.117-7.951
		c-3.145-3.367-5.594-7.252-7.344-11.654c-1.752-4.402-2.627-9.119-2.627-14.15c0-4.939,0.875-9.588,2.627-13.945
		c1.75-4.357,4.176-8.176,7.275-11.455c3.1-3.277,6.805-5.883,11.117-7.814s8.984-2.898,14.016-2.898
		c5.119,0,9.813,0.967,14.08,2.898c4.266,1.932,7.928,4.559,10.982,7.883s5.436,7.141,7.143,11.453s2.561,8.895,2.561,13.744
		c0,0.719,0,1.438,0,2.156s-0.045,1.213-0.135,1.482h-60.1c0.27,3.773,1.145,7.256,2.627,10.443
		c1.482,3.189,3.391,5.951,5.727,8.287s5.008,4.156,8.018,5.457c3.01,1.303,6.223,1.953,9.637,1.953c2.244,0,4.49-0.314,6.736-0.943
		s4.313-1.48,6.199-2.559s3.592-2.402,5.119-3.975s2.695-3.303,3.504-5.189l7.951,2.156c-1.078,2.605-2.605,4.965-4.582,7.074
		c-1.977,2.111-4.268,3.953-6.873,5.525s-5.479,2.785-8.623,3.639C313.93,99.287,310.65,99.715,307.238,99.715z M333.109,59.559
		c-0.27-3.771-1.146-7.207-2.629-10.307s-3.369-5.771-5.658-8.018c-2.291-2.246-4.941-3.998-7.951-5.256s-6.221-1.887-9.633-1.887
		c-3.414,0-6.648,0.629-9.703,1.887s-5.729,3.01-8.018,5.256c-2.291,2.246-4.133,4.939-5.525,8.084s-2.223,6.559-2.492,10.24
		H333.109z"/>
	<path fill="#808080" d="M391.065,36.248c-6.199,0.18-11.588,1.887-16.17,5.121s-7.814,7.68-9.701,13.34v43.658h-9.164V28.162h8.625
		v16.844c2.605-5.389,6.107-9.611,10.51-12.666s9.117-4.582,14.148-4.582c0.719,0,1.303,0.045,1.752,0.135V36.248z"/>
	<path fill="#808080" d="M430.154,99.715c-5.121,0-9.816-0.967-14.082-2.896c-4.268-1.932-7.973-4.582-11.117-7.951
		c-3.145-3.367-5.594-7.252-7.344-11.654c-1.752-4.402-2.627-9.119-2.627-14.15c0-4.939,0.875-9.588,2.627-13.945
		c1.75-4.357,4.176-8.176,7.275-11.455c3.1-3.277,6.805-5.883,11.117-7.814s8.984-2.898,14.016-2.898
		c5.119,0,9.813,0.967,14.08,2.898c4.266,1.932,7.928,4.559,10.982,7.883s5.436,7.141,7.143,11.453s2.561,8.895,2.561,13.744
		c0,0.719,0,1.438,0,2.156s-0.045,1.213-0.135,1.482h-60.1c0.27,3.773,1.145,7.256,2.627,10.443
		c1.482,3.189,3.391,5.951,5.727,8.287s5.008,4.156,8.018,5.457c3.01,1.303,6.223,1.953,9.637,1.953c2.244,0,4.49-0.314,6.736-0.943
		s4.313-1.48,6.199-2.559s3.592-2.402,5.119-3.975s2.695-3.303,3.504-5.189l7.951,2.156c-1.078,2.605-2.605,4.965-4.582,7.074
		c-1.977,2.111-4.268,3.953-6.873,5.525s-5.479,2.785-8.623,3.639C436.846,99.287,433.566,99.715,430.154,99.715z M456.025,59.559
		c-0.27-3.771-1.146-7.207-2.629-10.307s-3.369-5.771-5.658-8.018c-2.291-2.246-4.941-3.998-7.951-5.256s-6.221-1.887-9.633-1.887
		c-3.414,0-6.648,0.629-9.703,1.887s-5.729,3.01-8.018,5.256c-2.291,2.246-4.133,4.939-5.525,8.084s-2.223,6.559-2.492,10.24
		H456.025z"/>
	<path fill="#808080" d="M507.784,99.715c-4.852,0-9.344-1.012-13.477-3.031c-4.133-2.021-7.68-4.693-10.645-8.018
		s-5.279-7.164-6.939-11.521c-1.662-4.355-2.492-8.916-2.492-13.678c0-4.939,0.807-9.633,2.424-14.08s3.84-8.332,6.67-11.656
		s6.199-5.951,10.107-7.883c3.906-1.932,8.197-2.898,12.869-2.898c5.928,0,11.182,1.551,15.764,4.65s8.176,6.85,10.781,11.25V0
		h9.164v86.51c0,2.516,1.076,3.771,3.232,3.771v8.086c-1.348,0.27-2.424,0.404-3.232,0.404c-2.156,0-4.043-0.695-5.66-2.088
		s-2.426-3.078-2.426-5.055v-6.871c-2.785,4.582-6.559,8.219-11.32,10.914S512.903,99.715,507.784,99.715z M509.806,91.629
		c2.244,0,4.646-0.447,7.207-1.346s4.965-2.133,7.211-3.705s4.154-3.414,5.727-5.525c1.57-2.111,2.537-4.381,2.896-6.807V52.553
		c-0.898-2.426-2.201-4.693-3.908-6.805s-3.66-3.975-5.861-5.592s-4.559-2.875-7.074-3.773s-4.986-1.348-7.41-1.348
		c-3.773,0-7.188,0.809-10.242,2.426s-5.682,3.75-7.883,6.4s-3.885,5.682-5.053,9.096s-1.752,6.916-1.752,10.51
		c0,3.773,0.674,7.367,2.021,10.781s3.188,6.4,5.523,8.961s5.098,4.604,8.287,6.131S506.122,91.629,509.806,91.629z"/>
	<path fill="#808080" d="M631.504,99.715c-5.57,0-10.668-1.393-15.293-4.178c-4.627-2.785-8.242-6.377-10.848-10.779v13.609h-8.221
		V0h9.164v42.85c3.145-4.76,6.916-8.6,11.318-11.52s9.521-4.381,15.361-4.381c4.941,0,9.365,1.033,13.273,3.1
		c3.906,2.066,7.23,4.83,9.971,8.287c2.74,3.459,4.852,7.367,6.334,11.723c1.48,4.357,2.223,8.826,2.223,13.408
		c0,4.941-0.854,9.613-2.561,14.016s-4.041,8.242-7.006,11.52c-2.965,3.279-6.492,5.885-10.578,7.816
		C640.555,98.748,636.176,99.715,631.504,99.715z M629.348,91.629c3.863,0,7.389-0.785,10.578-2.357
		c3.189-1.57,5.93-3.682,8.221-6.332c2.289-2.65,4.086-5.66,5.389-9.029c1.303-3.367,1.955-6.85,1.955-10.443
		c0-3.684-0.607-7.23-1.82-10.645s-2.92-6.445-5.119-9.096c-2.201-2.65-4.852-4.762-7.951-6.334c-3.1-1.57-6.49-2.357-10.174-2.357
		c-2.785,0-5.389,0.473-7.814,1.416s-4.672,2.223-6.738,3.84s-3.908,3.48-5.525,5.592s-2.963,4.334-4.041,6.67v21.828
		c0.359,2.426,1.324,4.695,2.896,6.807s3.459,3.93,5.66,5.457c2.199,1.527,4.58,2.74,7.141,3.639S627.012,91.629,629.348,91.629z"/>
	<path fill="#808080" d="M681.917,119.928c0.719,0.09,1.414,0.156,2.088,0.203c0.674,0.043,1.327,0.066,1.956,0.066
		c1.617,0,2.896-0.225,3.84-0.674s1.863-1.438,2.762-2.965s1.908-3.729,3.031-6.602c1.123-2.877,2.719-6.738,4.785-11.59
		L669.79,28.162h9.432l26.008,61.717l24.119-61.717h8.76l-36.383,90.553c-0.988,2.605-2.629,4.873-4.92,6.805
		c-2.291,1.93-5.412,2.896-9.363,2.896c-0.898,0-1.752-0.023-2.561-0.066c-0.809-0.047-1.797-0.158-2.965-0.338V119.928z"/>
</g>
</svg>
