<?xml version="1.0" encoding="utf-8"?>
<!-- Generator: Adobe Illustrator 12.0.0, SVG Export Plug-In . SVG Version: 6.00 Build 51448)  -->
<!DOCTYPE svg PUBLIC "-//W3C//DTD SVG 1.1//EN" "http://www.w3.org/Graphics/SVG/1.1/DTD/svg11.dtd" [
	<!ENTITY ns_svg "http://www.w3.org/2000/svg">
	<!ENTITY ns_xlink "http://www.w3.org/1999/xlink">
]>
<svg  version="1.1" id="Ebene_1" xmlns="&ns_svg;" xmlns:xlink="&ns_xlink;" width="1438.635" height="582.748"
	 viewBox="0 0 1438.635 582.748" overflow="visible" enable-background="new 0 0 1438.635 582.748" xml:space="preserve">
<g>
	<path fill="#363436" d="M1288.526,186.449h-6.483v127.741c-5.78-2.312-13.869-6.283-24.854-10.404
		c-12.168-4.565-25.821-6.937-45.085-6.937c-14.261,0-29.389,2.701-45.374,8.093c-15.995,5.4-30.833,13.972-44.507,25.722
		c-13.683,11.758-24.955,26.787-33.814,45.085c-8.868,18.306-13.295,40.172-13.295,65.603c0,21.197,2.981,40.371,8.961,57.513
		c5.97,17.15,14.351,31.7,25.144,43.641c10.783,11.947,23.499,21.195,38.147,27.743c14.641,6.549,30.437,9.826,47.398,9.826
		c13.094,0,24.565-1.733,34.391-5.201c9.826-3.469,18.397-7.515,25.722-12.139c7.315-4.624,13.194-9.339,17.63-14.161
		c4.426-4.814,7.604-8.382,9.537-10.692l1.733,34.102h4.75h47.115v-29.167V186.449v-0.118h-47.115V186.449z M1282.043,458.692
		c0,7.713-1.445,16.094-4.335,25.145c-2.892,9.058-7.324,17.339-13.294,24.854c-5.979,7.515-13.782,13.781-23.41,18.785
		c-9.637,5.013-21.196,7.514-34.682,7.514c-13.492,0-25.143-2.401-34.969-7.225c-9.827-4.813-17.918-11.461-24.277-19.941
		c-6.357-8.472-11.08-18.397-14.16-29.768c-3.09-11.361-4.624-23.409-4.624-36.126c0-15.407,2.213-29.279,6.646-41.616
		c4.425-12.328,10.595-22.732,18.497-31.213c7.894-8.471,17.141-15.028,27.744-19.652c10.593-4.624,22.254-6.937,34.969-6.937
		c19.266,0,32.248,1.34,44.508,7.804c10.289,5.425,17.53,9.348,21.387,12.427V458.692z"/>
	<path fill="#363436" d="M79.756,300.116h0.246v-9.248c0-23.5,2.749-43.108,13.583-54.709c9.018-9.658,21.098-14.452,36.126-14.452
		c16.184,0,31.402,5.979,45.663,17.919l26.01-33.524c-11.56-10.784-24.186-18.397-37.86-22.832
		c-13.682-4.426-27.654-6.648-41.905-6.648c-12.337,0-24.087,2.024-35.259,6.07c-11.181,4.046-21.097,10.314-29.768,18.785
		c-8.67,8.481-15.606,19.364-20.808,32.658s-7.803,34.001-7.803,52.108v13.873H0.983v44.128H27.98v1.314v226.425h52.021V344.244
		h-0.246V300.116"/>
	<path fill="#363436" d="M329.494,324.259c-19.851-16.763-47.108-24.144-81.788-24.144c-6.368,0-37.721,0.103-72.051,0H66.312
		v44.128h172.664c20.884,0.514,38.229,1.999,50.42,9.606c11.41,7.12,20.157,20.652,20.157,40.684v9.826
		c-1.933-0.38-5.202-0.767-9.826-1.156c-4.624-0.379-10.025-0.768-16.184-1.156c-6.169-0.379-12.717-0.768-19.653-1.156
		c-6.936-0.379-13.493-0.578-19.652-0.578c-38.149,0-67.338,8.67-87.569,26.01c-20.23,17.341-30.345,40.461-30.345,69.361
		c0,15.417,2.79,28.422,8.381,39.016c5.581,10.604,12.906,19.274,21.964,26.011c9.05,6.747,19.074,11.561,30.057,14.45
		c10.982,2.892,22.055,4.335,33.235,4.335c17.341,0,34.194-3.277,50.576-9.826c16.374-6.547,29.569-16.563,39.594-30.057
		l1.156,32.369h51.553v-180.34C362.839,360.818,349.336,341.021,329.494,324.259 M309.553,475.454
		c0,8.093-2.122,15.995-6.358,23.699c-4.245,7.713-9.826,14.45-16.762,20.231c-6.936,5.778-14.938,10.402-23.988,13.871
		c-9.058,3.469-18.596,5.202-28.611,5.202c-17.729,0-31.601-3.758-41.617-11.271c-10.025-7.515-15.028-18.586-15.028-33.235
		c0-5.78,0.957-11.85,2.889-18.208c1.924-6.356,5.492-12.138,10.694-17.34s12.328-9.537,21.386-13.006
		c9.05-3.467,20.899-5.202,35.548-5.202c6.159,0,12.517,0.199,19.075,0.578c6.547,0.389,12.716,0.777,18.496,1.157
		c5.78,0.388,10.882,0.866,15.317,1.444c4.425,0.578,7.415,1.065,8.959,1.444V475.454z"/>
	<rect x="414.412" y="303.207" fill="#363436" width="55.379" height="268.775"/>
	<polygon fill="#363436" points="743.437,344.824 743.437,303.208 522.307,303.208 522.307,351.136 679.856,351.136 
		521.307,527.943 521.307,571.982 747.171,571.982 747.171,523.916 586.795,523.916 	"/>
	<path fill="#363436" d="M907.32,296.784c-78.967,0-142.982,64.015-142.982,142.982s64.016,142.982,142.982,142.982
		s142.982-64.016,142.982-142.982S986.287,296.784,907.32,296.784 M907.32,532.481c-51.206,0-92.716-41.51-92.716-92.716
		s41.51-92.716,92.716-92.716s92.716,41.51,92.716,92.716S958.526,532.481,907.32,532.481"/>
	<path fill="#363436" d="M474.418,233.486c0,17.848-14.469,32.317-32.317,32.317s-32.317-14.469-32.317-32.317
		c0-17.848,14.469-32.317,32.317-32.317S474.418,215.639,474.418,233.486"/>
	<path fill="#363436" d="M1438.635,541.486c0,17.849-14.469,32.317-32.316,32.317c-17.849,0-32.317-14.469-32.317-32.317
		c0-17.848,14.469-32.316,32.317-32.316C1424.166,509.17,1438.635,523.639,1438.635,541.486"/>
</g>
<text transform="matrix(1 0 0 1 0 115.2329)" fill="#808080" font-family="'Raleway-Regular'" font-size="134.7762">powered by</text>
</svg>
